<?xml version="1.0" encoding="iso-8859-1"?>
<!-- Uploaded to: SVG Repo, www.svgrepo.com, Generator: SVG Repo Mixer Tools -->
<svg version="1.1" id="Layer_1" xmlns="http://www.w3.org/2000/svg" xmlns:xlink="http://www.w3.org/1999/xlink" 
	 viewBox="0 0 512 512" xml:space="preserve">
<polygon style="fill:#6396ED;" points="439.158,195.404 256,195.404 235.095,331.893 256,468.382 439.158,468.382 "/>
<rect x="72.844" y="195.408" style="fill:#9DC1FF;" width="183.16" height="272.978"/>
<polygon style="fill:#FFAC00;" points="402.976,43.614 256,43.614 235.095,119.509 256,195.404 402.976,195.404 "/>
<rect x="109.02" y="43.614" style="fill:#FFD266;" width="146.973" height="151.792"/>
<g>
	<rect x="138.956" y="305.201" style="fill:#2E6BD6;" width="33.73" height="31.358"/>
	<rect x="189.044" y="305.201" style="fill:#2E6BD6;" width="33.73" height="31.358"/>
</g>
<g>
	<rect x="289.221" y="305.201" style="fill:#003DA6;" width="33.73" height="31.358"/>
	<rect x="339.31" y="305.201" style="fill:#003DA6;" width="33.73" height="31.358"/>
</g>
<g>
	<rect x="164" y="350.743" style="fill:#2E6BD6;" width="33.73" height="31.358"/>
	<rect x="214.089" y="350.743" style="fill:#2E6BD6;" width="33.73" height="31.358"/>
	<rect x="113.912" y="350.743" style="fill:#2E6BD6;" width="33.73" height="31.358"/>
</g>
<g>
	<rect x="264.177" y="350.743" style="fill:#003DA6;" width="33.73" height="31.358"/>
	<rect x="314.266" y="350.743" style="fill:#003DA6;" width="33.73" height="31.358"/>
	<rect x="364.364" y="350.743" style="fill:#003DA6;" width="33.73" height="31.358"/>
</g>
<rect x="138.956" y="396.274" style="fill:#2E6BD6;" width="33.73" height="31.358"/>
<rect x="339.31" y="396.274" style="fill:#003DA6;" width="33.73" height="31.358"/>
<g>
	<rect x="164" y="259.67" style="fill:#2E6BD6;" width="33.73" height="31.358"/>
	<rect x="214.089" y="259.67" style="fill:#2E6BD6;" width="33.73" height="31.358"/>
	<rect x="113.912" y="259.67" style="fill:#2E6BD6;" width="33.73" height="31.358"/>
</g>
<g>
	<rect x="264.177" y="259.67" style="fill:#003DA6;" width="33.73" height="31.358"/>
	<rect x="314.266" y="259.67" style="fill:#003DA6;" width="33.73" height="31.358"/>
	<rect x="364.364" y="259.67" style="fill:#003DA6;" width="33.73" height="31.358"/>
	<polygon style="fill:#003DA6;" points="480.642,155.421 480.642,179.725 256,179.725 235.095,195.404 256,211.082 480.642,211.082 
		480.642,235.386 512,235.386 512,155.421 	"/>
</g>
<polygon style="fill:#2E6BD6;" points="31.358,179.725 31.358,155.421 0,155.421 0,235.386 31.358,235.386 31.358,211.082 
	256,211.082 256,179.725 "/>
<polygon style="fill:#F35A00;" points="363.264,78.532 256,78.532 245.547,94.211 256,109.889 363.264,109.889 "/>
<rect x="148.739" y="78.528" style="fill:#FF8600;" width="107.264" height="31.358"/>
<polygon style="fill:#F35A00;" points="363.264,129.128 256,129.128 245.547,144.807 256,160.486 363.264,160.486 "/>
<rect x="148.739" y="129.128" style="fill:#FF8600;" width="107.264" height="31.358"/>
<polygon style="fill:#003DA6;" points="322.956,396.277 256,396.277 235.095,411.956 256,427.635 322.956,427.635 "/>
<rect x="189.044" y="396.274" style="fill:#2E6BD6;" width="66.959" height="31.358"/>
<polygon style="fill:#003DA6;" points="272.866,305.203 256,305.203 245.547,320.882 256,336.561 272.866,336.561 "/>
<rect x="239.133" y="305.201" style="fill:#2E6BD6;" width="16.87" height="31.358"/>
</svg>